<mxfile host="app.diagrams.net" modified="2024-03-05T04:06:02.573Z" agent="Mozilla/5.0 (X11; Ubuntu; Linux x86_64; rv:122.0) Gecko/20100101 Firefox/122.0" etag="VnRjW0DJDV-fKbZ6Cd95" version="24.0.1" type="github">
  <diagram name="Page-1" id="Pl2OwylrtIg2WgP9YWkk">
    <mxGraphModel dx="980" dy="579" grid="1" gridSize="10" guides="1" tooltips="1" connect="1" arrows="1" fold="1" page="1" pageScale="1" pageWidth="850" pageHeight="1100" math="0" shadow="0">
      <root>
        <mxCell id="0" />
        <mxCell id="1" parent="0" />
        <mxCell id="kIg5PQVOjFDqGCnotWBU-1" value="srsUE" style="rounded=0;whiteSpace=wrap;html=1;" vertex="1" parent="1">
          <mxGeometry x="60" y="260" width="120" height="60" as="geometry" />
        </mxCell>
      </root>
    </mxGraphModel>
  </diagram>
</mxfile>
